# MagicaVoxel @ ephtracy

# material
mtllib chr_zombie.mtl
usemtl palette

# normals
vn -1 0 0
vn 1 0 0
vn 0 0 1
vn 0 0 -1
vn 0 -1 0
vn 0 1 0

# texcoords
vt 0.0332031 0.5
vt 0.0605469 0.5
vt 0.189453 0.5
vt 0.197266 0.5
vt 0.818359 0.5
vt 0.841797 0.5
vt 0.849609 0.5
vt 0.908203 0.5
vt 0.912109 0.5
vt 0.939453 0.5
vt 0.958984 0.5
vt 0.986328 0.5
vt 0.990234 0.5
vt 0.994141 0.5

# verts
v -3.5 0 4.5
v -3.5 0 -2.5
v -3.5 4 4.5
v -3.5 4 -2.5
v -3.5 6 4.5
v -3.5 6 3.5
v -3.5 7 3.5
v -3.5 7 -2.5
v -3.5 8 4.5
v -3.5 8 3.5
v -3.5 8 2.5
v -3.5 8 -1.5
v -3.5 8 -2.5
v -3.5 9 3.5
v -3.5 9 2.5
v -3.5 9 -1.5
v -2.5 8 4.5
v -2.5 8 3.5
v -2.5 8 -1.5
v -2.5 8 -2.5
v -2.5 9 4.5
v -2.5 9 3.5
v -2.5 9 2.5
v -2.5 9 1.5
v -2.5 9 -0.5
v -2.5 9 -1.5
v -2.5 9 -2.5
v -2.5 10 2.5
v -2.5 10 1.5
v -2.5 10 -0.5
v -1.5 9 3.5
v -1.5 9 2.5
v -1.5 9 -0.5
v -1.5 9 -1.5
v -1.5 10 3.5
v -1.5 10 2.5
v -1.5 10 -0.5
v -1.5 10 -1.5
v 0.5 0 4.5
v 0.5 0 -2.5
v 0.5 1 3.5
v 0.5 1 -1.5
v 0.5 2 4.5
v 0.5 2 3.5
v 0.5 2 -1.5
v 0.5 2 -2.5
v -0.5 0 4.5
v -0.5 0 -2.5
v -0.5 1 3.5
v -0.5 1 -1.5
v -0.5 2 4.5
v -0.5 2 3.5
v -0.5 2 -1.5
v -0.5 2 -2.5
v 1.5 9 3.5
v 1.5 9 2.5
v 1.5 9 -0.5
v 1.5 9 -1.5
v 1.5 10 3.5
v 1.5 10 2.5
v 1.5 10 -0.5
v 1.5 10 -1.5
v 2.5 8 4.5
v 2.5 8 3.5
v 2.5 8 -1.5
v 2.5 8 -2.5
v 2.5 9 4.5
v 2.5 9 3.5
v 2.5 9 2.5
v 2.5 9 -0.5
v 2.5 9 -1.5
v 2.5 9 -2.5
v 2.5 10 2.5
v 2.5 10 -0.5
v 3.5 0 4.5
v 3.5 0 -2.5
v 3.5 2 2.5
v 3.5 2 -1.5
v 3.5 3 2.5
v 3.5 3 -1.5
v 3.5 4 4.5
v 3.5 4 2.5
v 3.5 4 -1.5
v 3.5 4 -2.5
v 3.5 6 2.5
v 3.5 6 -1.5
v 3.5 7 4.5
v 3.5 7 -2.5
v 3.5 8 4.5
v 3.5 8 3.5
v 3.5 8 -1.5
v 3.5 8 -2.5
v 3.5 9 3.5
v 3.5 9 -1.5
v 4.5 2 2.5
v 4.5 2 -1.5
v 4.5 3 2.5
v 4.5 3 -1.5
v 4.5 4 2.5
v 4.5 4 -1.5
v 4.5 6 2.5
v 4.5 6 -1.5
v -3.5 0 4.5
v -3.5 4 4.5
v -3.5 6 4.5
v -3.5 8 4.5
v -2.5 0 4.5
v -2.5 4 4.5
v -2.5 6 4.5
v -2.5 7 4.5
v -2.5 8 4.5
v -2.5 9 4.5
v -1.5 3 4.5
v -1.5 4 4.5
v -1.5 5 4.5
v -1.5 7 4.5
v -1.5 8 4.5
v -1.5 9 4.5
v -0.5 0 4.5
v -0.5 2 4.5
v -0.5 3 4.5
v -0.5 4 4.5
v -0.5 5 4.5
v -0.5 7 4.5
v 0.5 0 4.5
v 0.5 2 4.5
v 0.5 3 4.5
v 0.5 4 4.5
v 0.5 5 4.5
v 0.5 7 4.5
v 1.5 3 4.5
v 1.5 4 4.5
v 1.5 5 4.5
v 1.5 7 4.5
v 2.5 0 4.5
v 2.5 4 4.5
v 2.5 8 4.5
v 2.5 9 4.5
v 3.5 0 4.5
v 3.5 4 4.5
v 3.5 7 4.5
v 3.5 8 4.5
v -3.5 8 3.5
v -3.5 9 3.5
v -2.5 8 3.5
v -2.5 9 3.5
v -1.5 9 3.5
v -1.5 10 3.5
v -0.5 9 3.5
v -0.5 10 3.5
v 1.5 9 3.5
v 1.5 10 3.5
v 2.5 8 3.5
v 2.5 9 3.5
v 3.5 8 3.5
v 3.5 9 3.5
v -2.5 9 2.5
v -2.5 10 2.5
v -1.5 9 2.5
v -1.5 10 2.5
v 1.5 9 2.5
v 1.5 10 2.5
v 2.5 9 2.5
v 2.5 10 2.5
v 3.5 2 2.5
v 3.5 3 2.5
v 3.5 4 2.5
v 3.5 6 2.5
v 4.5 2 2.5
v 4.5 3 2.5
v 4.5 4 2.5
v 4.5 6 2.5
v -2.5 9 -0.5
v -2.5 10 -0.5
v -1.5 9 -0.5
v -1.5 10 -0.5
v 1.5 9 -0.5
v 1.5 10 -0.5
v 2.5 9 -0.5
v 2.5 10 -0.5
v -3.5 8 -1.5
v -3.5 9 -1.5
v -2.5 8 -1.5
v -2.5 9 -1.5
v -1.5 9 -1.5
v -1.5 10 -1.5
v 1.5 9 -1.5
v 1.5 10 -1.5
v 2.5 8 -1.5
v 2.5 9 -1.5
v 3.5 2 -1.5
v 3.5 3 -1.5
v 3.5 4 -1.5
v 3.5 6 -1.5
v 3.5 8 -1.5
v 3.5 9 -1.5
v 4.5 2 -1.5
v 4.5 3 -1.5
v 4.5 4 -1.5
v 4.5 6 -1.5
v -3.5 0 -2.5
v -3.5 4 -2.5
v -3.5 7 -2.5
v -3.5 8 -2.5
v -2.5 0 -2.5
v -2.5 4 -2.5
v -2.5 8 -2.5
v -2.5 9 -2.5
v -0.5 0 -2.5
v -0.5 2 -2.5
v 0.5 0 -2.5
v 0.5 2 -2.5
v 2.5 0 -2.5
v 2.5 4 -2.5
v 2.5 8 -2.5
v 2.5 9 -2.5
v 3.5 0 -2.5
v 3.5 4 -2.5
v 3.5 7 -2.5
v 3.5 8 -2.5
v -3.5 0 4.5
v -2.5 0 4.5
v -0.5 0 4.5
v 0.5 0 4.5
v 2.5 0 4.5
v 3.5 0 4.5
v -3.5 0 -2.5
v -2.5 0 -2.5
v -0.5 0 -2.5
v 0.5 0 -2.5
v 2.5 0 -2.5
v 3.5 0 -2.5
v -0.5 2 4.5
v 0.5 2 4.5
v -0.5 2 3.5
v 0.5 2 3.5
v 3.5 2 2.5
v 4.5 2 2.5
v -0.5 2 -1.5
v 0.5 2 -1.5
v 3.5 2 -1.5
v 4.5 2 -1.5
v -0.5 2 -2.5
v 0.5 2 -2.5
v 3.5 6 2.5
v 4.5 6 2.5
v 3.5 6 -1.5
v 4.5 6 -1.5
v -3.5 8 4.5
v -2.5 8 4.5
v 2.5 8 4.5
v 3.5 8 4.5
v -3.5 8 3.5
v -2.5 8 3.5
v 2.5 8 3.5
v 3.5 8 3.5
v -3.5 8 -1.5
v -2.5 8 -1.5
v 2.5 8 -1.5
v 3.5 8 -1.5
v -3.5 8 -2.5
v -2.5 8 -2.5
v 2.5 8 -2.5
v 3.5 8 -2.5
v -2.5 9 4.5
v -1.5 9 4.5
v 2.5 9 4.5
v -3.5 9 3.5
v -2.5 9 3.5
v -1.5 9 3.5
v -0.5 9 3.5
v 1.5 9 3.5
v 2.5 9 3.5
v 3.5 9 3.5
v -3.5 9 2.5
v -2.5 9 2.5
v -1.5 9 2.5
v 1.5 9 2.5
v 2.5 9 2.5
v -2.5 9 1.5
v -2.5 9 -0.5
v -1.5 9 -0.5
v 1.5 9 -0.5
v 2.5 9 -0.5
v -3.5 9 -1.5
v -2.5 9 -1.5
v -1.5 9 -1.5
v 1.5 9 -1.5
v 2.5 9 -1.5
v 3.5 9 -1.5
v -2.5 9 -2.5
v 2.5 9 -2.5
v -1.5 10 3.5
v -0.5 10 3.5
v 1.5 10 3.5
v -2.5 10 2.5
v -1.5 10 2.5
v 1.5 10 2.5
v 2.5 10 2.5
v -2.5 10 1.5
v -0.5 10 1.5
v -2.5 10 -0.5
v -1.5 10 -0.5
v 1.5 10 -0.5
v 2.5 10 -0.5
v -1.5 10 -1.5
v 1.5 10 -1.5

# faces
f 3/14/1 2/14/1 1/14/1
f 4/14/1 2/14/1 3/14/1
f 5/8/1 4/8/1 3/8/1
f 6/8/1 4/8/1 5/8/1
f 7/7/1 6/7/1 5/7/1
f 7/8/1 4/8/1 6/8/1
f 8/8/1 4/8/1 7/8/1
f 9/7/1 7/7/1 5/7/1
f 10/9/1 8/9/1 7/9/1
f 10/7/1 7/7/1 9/7/1
f 11/9/1 8/9/1 10/9/1
f 12/9/1 8/9/1 11/9/1
f 13/9/1 8/9/1 12/9/1
f 14/7/1 11/7/1 10/7/1
f 15/9/1 12/9/1 11/9/1
f 15/7/1 11/7/1 14/7/1
f 16/9/1 12/9/1 15/9/1
f 21/7/1 18/7/1 17/7/1
f 22/7/1 18/7/1 21/7/1
f 26/9/1 20/9/1 19/9/1
f 27/9/1 20/9/1 26/9/1
f 28/7/1 24/7/1 23/7/1
f 29/9/1 25/9/1 24/9/1
f 29/7/1 24/7/1 28/7/1
f 30/9/1 25/9/1 29/9/1
f 35/7/1 32/7/1 31/7/1
f 36/7/1 32/7/1 35/7/1
f 37/9/1 34/9/1 33/9/1
f 38/9/1 34/9/1 37/9/1
f 41/12/1 40/12/1 39/12/1
f 42/12/1 40/12/1 41/12/1
f 43/12/1 41/12/1 39/12/1
f 44/13/1 42/13/1 41/13/1
f 44/12/1 41/12/1 43/12/1
f 45/12/1 40/12/1 42/12/1
f 45/13/1 42/13/1 44/13/1
f 46/12/1 40/12/1 45/12/1
f 47/12/2 48/12/2 49/12/2
f 49/12/2 48/12/2 50/12/2
f 47/12/2 49/12/2 51/12/2
f 49/14/2 50/14/2 52/14/2
f 51/12/2 49/12/2 52/12/2
f 50/12/2 48/12/2 53/12/2
f 52/14/2 50/14/2 53/14/2
f 53/12/2 48/12/2 54/12/2
f 55/9/2 56/9/2 59/9/2
f 59/9/2 56/9/2 60/9/2
f 57/9/2 58/9/2 61/9/2
f 61/9/2 58/9/2 62/9/2
f 63/9/2 64/9/2 67/9/2
f 67/9/2 64/9/2 68/9/2
f 65/9/2 66/9/2 71/9/2
f 71/9/2 66/9/2 72/9/2
f 69/9/2 70/9/2 73/9/2
f 73/9/2 70/9/2 74/9/2
f 75/14/2 76/14/2 77/14/2
f 77/14/2 76/14/2 78/14/2
f 75/14/2 77/14/2 79/14/2
f 78/14/2 76/14/2 80/14/2
f 75/14/2 79/14/2 81/14/2
f 81/14/2 79/14/2 82/14/2
f 80/14/2 76/14/2 83/14/2
f 83/14/2 76/14/2 84/14/2
f 81/8/2 82/8/2 85/8/2
f 83/8/2 84/8/2 86/8/2
f 81/8/2 85/8/2 87/8/2
f 85/8/2 86/8/2 87/8/2
f 86/8/2 84/8/2 88/8/2
f 87/8/2 86/8/2 88/8/2
f 87/9/2 88/9/2 89/9/2
f 89/9/2 88/9/2 90/9/2
f 90/9/2 88/9/2 91/9/2
f 91/9/2 88/9/2 92/9/2
f 90/9/2 91/9/2 93/9/2
f 93/9/2 91/9/2 94/9/2
f 95/8/2 96/8/2 97/8/2
f 97/8/2 96/8/2 98/8/2
f 97/12/2 98/12/2 99/12/2
f 99/12/2 98/12/2 100/12/2
f 99/6/2 100/6/2 101/6/2
f 101/6/2 100/6/2 102/6/2
f 107/14/3 104/14/3 103/14/3
f 108/8/3 105/8/3 104/8/3
f 108/14/3 104/14/3 107/14/3
f 109/7/3 106/7/3 105/7/3
f 109/8/3 105/8/3 108/8/3
f 110/7/3 106/7/3 109/7/3
f 111/7/3 106/7/3 110/7/3
f 113/12/3 108/12/3 107/12/3
f 114/8/3 109/8/3 108/8/3
f 114/12/3 108/12/3 113/12/3
f 114/8/3 110/8/3 109/8/3
f 115/8/3 110/8/3 114/8/3
f 116/9/3 111/9/3 110/9/3
f 116/8/3 110/8/3 115/8/3
f 117/7/3 112/7/3 111/7/3
f 117/9/3 111/9/3 116/9/3
f 118/7/3 112/7/3 117/7/3
f 119/12/3 113/12/3 107/12/3
f 120/12/3 113/12/3 119/12/3
f 121/14/3 114/14/3 113/14/3
f 121/12/3 113/12/3 120/12/3
f 122/8/3 115/8/3 114/8/3
f 122/14/3 114/14/3 121/14/3
f 123/11/3 116/11/3 115/11/3
f 123/8/3 115/8/3 122/8/3
f 124/9/3 117/9/3 116/9/3
f 124/11/3 116/11/3 123/11/3
f 124/9/3 118/9/3 117/9/3
f 126/14/3 121/14/3 120/14/3
f 127/8/3 122/8/3 121/8/3
f 127/8/3 124/8/3 123/8/3
f 127/14/3 121/14/3 126/14/3
f 127/8/3 123/8/3 122/8/3
f 128/8/3 124/8/3 127/8/3
f 129/8/3 124/8/3 128/8/3
f 130/9/3 118/9/3 124/9/3
f 130/8/3 124/8/3 129/8/3
f 131/12/3 126/12/3 125/12/3
f 131/12/3 127/12/3 126/12/3
f 131/14/3 128/14/3 127/14/3
f 132/8/3 129/8/3 128/8/3
f 132/14/3 128/14/3 131/14/3
f 133/11/3 130/11/3 129/11/3
f 133/8/3 129/8/3 132/8/3
f 134/9/3 118/9/3 130/9/3
f 134/11/3 130/11/3 133/11/3
f 135/12/3 131/12/3 125/12/3
f 135/12/3 132/12/3 131/12/3
f 136/8/3 133/8/3 132/8/3
f 136/12/3 132/12/3 135/12/3
f 136/8/3 134/8/3 133/8/3
f 137/9/3 118/9/3 134/9/3
f 138/9/3 118/9/3 137/9/3
f 139/14/3 136/14/3 135/14/3
f 140/8/3 134/8/3 136/8/3
f 140/14/3 136/14/3 139/14/3
f 141/9/3 137/9/3 134/9/3
f 141/8/3 134/8/3 140/8/3
f 142/9/3 137/9/3 141/9/3
f 145/7/3 144/7/3 143/7/3
f 146/7/3 144/7/3 145/7/3
f 149/7/3 148/7/3 147/7/3
f 150/7/3 148/7/3 149/7/3
f 151/9/3 150/9/3 149/9/3
f 152/9/3 150/9/3 151/9/3
f 155/9/3 154/9/3 153/9/3
f 156/9/3 154/9/3 155/9/3
f 159/7/3 158/7/3 157/7/3
f 160/7/3 158/7/3 159/7/3
f 163/9/3 162/9/3 161/9/3
f 164/9/3 162/9/3 163/9/3
f 169/8/3 166/8/3 165/8/3
f 170/12/3 167/12/3 166/12/3
f 170/8/3 166/8/3 169/8/3
f 171/6/3 168/6/3 167/6/3
f 171/12/3 167/12/3 170/12/3
f 172/6/3 168/6/3 171/6/3
f 173/9/4 174/9/4 175/9/4
f 175/9/4 174/9/4 176/9/4
f 177/9/4 178/9/4 179/9/4
f 179/9/4 178/9/4 180/9/4
f 181/9/4 182/9/4 183/9/4
f 183/9/4 182/9/4 184/9/4
f 185/9/4 186/9/4 187/9/4
f 187/9/4 186/9/4 188/9/4
f 189/9/4 190/9/4 195/9/4
f 195/9/4 190/9/4 196/9/4
f 191/8/4 192/8/4 197/8/4
f 192/12/4 193/12/4 198/12/4
f 197/8/4 192/8/4 198/8/4
f 193/6/4 194/6/4 199/6/4
f 198/12/4 193/12/4 199/12/4
f 199/6/4 194/6/4 200/6/4
f 201/14/4 202/14/4 205/14/4
f 202/8/4 203/8/4 206/8/4
f 205/14/4 202/14/4 206/14/4
f 203/9/4 204/9/4 207/9/4
f 205/12/4 206/12/4 209/12/4
f 209/12/4 206/12/4 210/12/4
f 210/12/4 206/12/4 212/12/4
f 211/12/4 212/12/4 213/12/4
f 206/8/4 203/8/4 214/8/4
f 213/12/4 212/12/4 214/12/4
f 212/12/4 206/12/4 214/12/4
f 207/9/4 208/9/4 215/9/4
f 203/9/4 207/9/4 215/9/4
f 215/9/4 208/9/4 216/9/4
f 213/14/4 214/14/4 217/14/4
f 214/8/4 203/8/4 218/8/4
f 217/14/4 214/14/4 218/14/4
f 203/9/4 215/9/4 219/9/4
f 218/8/4 203/8/4 219/8/4
f 219/9/4 215/9/4 220/9/4
f 227/14/5 222/14/5 221/14/5
f 228/12/5 223/12/5 222/12/5
f 228/14/5 222/14/5 227/14/5
f 229/12/5 223/12/5 228/12/5
f 230/12/5 225/12/5 224/12/5
f 231/14/5 226/14/5 225/14/5
f 231/12/5 225/12/5 230/12/5
f 232/14/5 226/14/5 231/14/5
f 235/14/5 234/14/5 233/14/5
f 236/14/5 234/14/5 235/14/5
f 239/12/5 236/12/5 235/12/5
f 240/12/5 236/12/5 239/12/5
f 241/8/5 238/8/5 237/8/5
f 242/8/5 238/8/5 241/8/5
f 243/12/5 240/12/5 239/12/5
f 244/12/5 240/12/5 243/12/5
f 245/6/6 246/6/6 247/6/6
f 247/6/6 246/6/6 248/6/6
f 249/7/6 250/7/6 253/7/6
f 253/7/6 250/7/6 254/7/6
f 251/9/6 252/9/6 255/9/6
f 255/9/6 252/9/6 256/9/6
f 257/9/6 258/9/6 261/9/6
f 261/9/6 258/9/6 262/9/6
f 259/9/6 260/9/6 263/9/6
f 263/9/6 260/9/6 264/9/6
f 265/7/6 266/7/6 269/7/6
f 266/9/6 267/9/6 270/9/6
f 269/7/6 266/7/6 270/7/6
f 270/9/6 267/9/6 271/9/6
f 271/9/6 267/9/6 272/9/6
f 272/9/6 267/9/6 273/9/6
f 268/7/6 269/7/6 275/7/6
f 269/7/6 270/7/6 275/7/6
f 275/7/6 270/7/6 276/7/6
f 276/7/6 270/7/6 277/7/6
f 273/9/6 274/9/6 278/9/6
f 272/9/6 273/9/6 278/9/6
f 278/9/6 274/9/6 279/9/6
f 275/9/6 276/9/6 280/9/6
f 275/9/6 280/9/6 281/9/6
f 279/9/6 274/9/6 284/9/6
f 281/9/6 282/9/6 285/9/6
f 275/9/6 281/9/6 285/9/6
f 285/9/6 282/9/6 286/9/6
f 286/9/6 282/9/6 287/9/6
f 283/9/6 284/9/6 288/9/6
f 284/9/6 274/9/6 289/9/6
f 288/9/6 284/9/6 289/9/6
f 289/9/6 274/9/6 290/9/6
f 286/9/6 287/9/6 291/9/6
f 287/9/6 288/9/6 291/9/6
f 288/9/6 289/9/6 291/9/6
f 291/9/6 289/9/6 292/9/6
f 293/7/6 294/7/6 297/7/6
f 294/9/6 295/9/6 298/9/6
f 296/7/6 297/7/6 300/7/6
f 298/9/6 299/9/6 301/9/6
f 300/7/6 297/7/6 301/7/6
f 297/7/6 294/7/6 301/7/6
f 294/9/6 298/9/6 301/9/6
f 300/9/6 301/9/6 302/9/6
f 302/9/6 301/9/6 303/9/6
f 301/9/6 299/9/6 304/9/6
f 303/9/6 301/9/6 304/9/6
f 304/9/6 299/9/6 305/9/6
f 303/9/6 304/9/6 306/9/6
f 306/9/6 304/9/6 307/9/6
